<svg xmlns="http://www.w3.org/2000/svg" width="79" height="42" viewBox="0 0 79 42">
  <g id="Path_86" data-name="Path 86" fill="none">
    <path d="M0,0H59A20,20,0,0,1,79,20v2A20,20,0,0,1,59,42H20A20,20,0,0,1,0,22Z" stroke="none"/>
    <path d="M 4 4 L 4 22 C 4 26.27375793457031 5.664283752441406 30.29171371459961 8.686286926269531 33.31371307373047 C 11.70828247070312 36.33571624755859 15.72624206542969 38 20 38 L 59 38 C 63.27375793457031 38 67.29170227050781 36.33571624755859 70.31369781494141 33.31371307373047 C 73.33571624755859 30.29171371459961 75 26.27375793457031 75 22 L 75 20 C 75 15.72624206542969 73.33571624755859 11.70828628540039 70.31369781494141 8.686286926269531 C 67.29170227050781 5.664287567138672 63.27375793457031 4 59 4 L 4 4 M 0 0 L 59 0 C 70.04568481445312 0 79 8.954299926757812 79 20 L 79 22 C 79 33.04570007324219 70.04568481445312 42 59 42 L 20 42 C 8.954299926757812 42 0 33.04570007324219 0 22 L 0 0 Z" stroke="none" fill="#000"/>
  </g>
  <g id="Rectangle_318" data-name="Rectangle 318" transform="translate(10 9)" fill="none" stroke="#000" stroke-linejoin="round" stroke-width="4">
    <path d="M0,0H48A12,12,0,0,1,60,12v0A12,12,0,0,1,48,24H12A12,12,0,0,1,0,12V0A0,0,0,0,1,0,0Z" stroke="none"/>
    <path d="M3.538,2H48A10,10,0,0,1,58,12v0A10,10,0,0,1,48,22H12A10,10,0,0,1,2,12V3.538A1.538,1.538,0,0,1,3.538,2Z" fill="none"/>
  </g>
</svg>
